<svg width="469" height="219" viewBox="0 0 469 219" fill="none" xmlns="http://www.w3.org/2000/svg">
<path d="M434.863 165.337C430.448 181.454 316.187 155.051 197.269 122.476C78.3516 89.9015 15.8293 61.6716 20.2439 45.5554C24.6586 29.4392 108.619 44.6002 227.537 77.1749C346.454 109.749 439.277 149.221 434.863 165.337Z" fill="white"/>
<mask id="mask0_15_37" style="mask-type:alpha" maskUnits="userSpaceOnUse" x="54" y="23" width="395" height="136">
<path d="M448.544 145.092C441.019 169.067 348.295 161.184 241.441 127.483C134.586 93.7832 47.0087 60.1336 54.5339 36.1581C62.0592 12.1826 136.085 22.9393 242.94 56.6396C349.795 90.3398 456.069 121.116 448.544 145.092Z" fill="white"/>
</mask>
<g mask="url(#mask0_15_37)">
<path d="M443.171 143.623C435.645 167.599 342.922 159.715 236.067 126.015C129.213 92.3149 41.6354 58.6652 49.1606 34.6898C56.6859 10.7143 130.712 21.471 237.567 55.1712C344.421 88.8715 450.696 119.648 443.171 143.623Z" fill="white"/>
<path d="M52.2521 27.9177L61.667 30.2626L57.0224 37.0549L52.5685 36.0948L52.2521 27.9177Z" fill="#4465D9"/>
<path d="M62.6653 30.7031L67.6105 31.679L64.4717 39.3365L58.5121 37.5112L62.6653 30.7031Z" fill="#4464D9"/>
<path d="M68.2914 32.1429L71.6048 33.441L70.3364 38.7087L65.4704 39.7771L68.2914 32.1429Z" fill="#4464D9"/>
</g>
<path d="M171.815 111.512C171.815 118.272 167.491 122.222 162.156 122.222C156.822 122.222 145.156 126.304 145.156 119.544C145.156 112.784 150.952 87.0315 162.156 99.2716C167.491 99.2716 171.815 104.752 171.815 111.512Z" fill="#79C0FF"/>
<path d="M163.702 112.659C159.35 124.804 158.465 130.779 142.708 130.779C120.299 130.779 125.116 113.517 129.467 101.372C133.818 89.2268 140.525 73.5037 158.465 86.7977C172.201 96.9766 168.053 100.514 163.702 112.659Z" fill="#D8EDFF"/>
<path d="M198.498 82.5107C197.529 85.3907 197.073 86.7477 194.946 86.7581C192.91 85.7106 193.714 84.1079 194.683 81.2279C195.652 78.3478 195.741 76.5046 198.344 76.6545C200.38 77.702 199.466 79.6306 198.498 82.5107Z" fill="#4464D9"/>
<path d="M210.498 86.5107C209.529 89.3907 209.073 90.7477 206.946 90.7581C204.91 89.7106 205.714 88.1079 206.683 85.2279C207.652 82.3478 207.741 80.5046 210.344 80.6545C212.38 81.702 211.466 83.6306 210.498 86.5107Z" fill="#4464D9"/>
<path d="M221.498 89.5107C220.529 92.3907 220.073 93.7477 217.946 93.7581C215.91 92.7106 216.714 91.1079 217.683 88.2279C218.652 85.3478 218.741 83.5046 221.344 83.6545C223.38 84.702 222.466 86.6306 221.498 89.5107Z" fill="#4464D9"/>
<path d="M233.498 93.5107C232.529 96.3907 232.073 97.7477 229.946 97.7581C227.91 96.7106 228.714 95.1079 229.683 92.2279C230.652 89.3478 230.741 87.5046 233.344 87.6545C235.38 88.702 234.466 90.6306 233.498 93.5107Z" fill="#4464D9"/>
<path d="M188.497 79.5107C187.529 82.3907 187.073 83.7477 184.946 83.7581C182.91 82.7106 183.714 81.1079 184.683 78.2279C185.651 75.3478 185.741 73.5046 188.344 73.6545C190.38 74.702 189.466 76.6306 188.497 79.5107Z" fill="#4464D9"/>
<path d="M177.497 76.5107C176.529 79.3907 176.073 80.7477 173.946 80.7581C171.91 79.7106 172.714 78.1079 173.683 75.2279C174.651 72.3478 174.741 70.5046 177.344 70.6545C179.38 71.702 178.466 73.6306 177.497 76.5107Z" fill="#4464D9"/>
<path d="M166.497 73.5107C165.529 76.3907 165.073 77.7477 162.946 77.7581C160.91 76.7106 161.714 75.1079 162.683 72.2279C163.651 69.3478 163.741 67.5046 166.344 67.6545C168.38 68.702 167.466 70.6306 166.497 73.5107Z" fill="#4464D9"/>
<path d="M155.497 70.5107C154.529 73.3907 154.073 74.7477 151.946 74.7581C149.91 73.7106 150.714 72.1079 151.683 69.2279C152.651 66.3478 152.741 64.5046 155.344 64.6545C157.38 65.702 156.466 67.6306 155.497 70.5107Z" fill="#4464D9"/>
<path d="M144.497 67.5107C143.529 70.3907 143.073 71.7477 140.946 71.7581C138.91 70.7106 139.714 69.1079 140.683 66.2279C141.651 63.3478 141.741 61.5046 144.344 61.6545C146.38 62.702 145.466 64.6306 144.497 67.5107Z" fill="#4464D9"/>
<path d="M133.497 64.5107C132.529 67.3907 132.073 68.7477 129.946 68.7581C127.91 67.7106 128.714 66.1079 129.683 63.2279C130.651 60.3478 130.741 58.5046 133.344 58.6545C135.38 59.702 134.466 61.6306 133.497 64.5107Z" fill="#4464D9"/>
<path d="M122.497 61.5107C121.529 64.3907 121.073 65.7477 118.946 65.7581C116.91 64.7106 117.714 63.1079 118.683 60.2279C119.651 57.3478 119.741 55.5046 122.344 55.6545C124.38 56.702 123.466 58.6306 122.497 61.5107Z" fill="#4464D9"/>
<path d="M111.497 58.5107C110.529 61.3907 110.073 62.7477 107.946 62.7581C105.91 61.7106 106.714 60.1079 107.683 57.2279C108.651 54.3478 108.741 52.5046 111.344 52.6545C113.38 53.702 112.466 55.6306 111.497 58.5107Z" fill="#4464D9"/>
<path d="M418.328 100.013C418.503 104.98 374.572 110.559 320.206 112.474C265.84 114.389 232.073 111.819 223.573 108.819C227.989 92.1531 265.206 96.4001 319.572 94.4854C373.939 92.5707 418.153 95.0454 418.328 100.013Z" fill="#79C0FF"/>
<path d="M451.573 81.3189L223 109.04L336.073 140.319L451.573 81.3189Z" fill="#D8EDFF"/>
</svg>
